<svg width="200" height="200" viewBox="0 0 256 256" xmlns="http://www.w3.org/2000/svg">
  <path fill="#3776AB" d="M128 0c-23 0-45 2-45 2-21 4-25 12-25 27v20h50v7H58c-15 0-28 9-32 26-5 20-5 32 0 53 4 16 13 26 28 26h18v-24c0-17 14-32 32-32h50c14 0 25-11 25-25V29c0-14-12-25-25-27 0 0-23-2-46-2zm-27 15c5 0 9 4 9 9s-4 9-9 9-9-4-9-9 4-9 9-9z"/>
  
  <path fill="#FFD43B" d="M128 256c23 0 45-2 45-2 21-4 25-12 25-27v-20h-50v-7h50c15 0 28-9 32-26 5-20 5-32 0-53-4-16-13-26-28-26h-18v24c0 17-14 32-32 32h-50c-14 0-25 11-25 25v51c0 14 12 25 25 27 0 0 23 2 46 2zm27-15c-5 0-9-4-9-9s4-9 9-9 9 4 9 9-4 9-9 9z"/>
</svg>